<svg width="52" height="52" viewBox="0 0 52 52" fill="none" xmlns="http://www.w3.org/2000/svg">
<path d="M1 1H42C46.9706 1 51 5.02944 51 10V42C51 46.9706 46.9706 51 42 51H1V1Z" fill="#242B42" stroke="#1A2036" stroke-width="2"/>
<g clip-path="url(#clip0_3_106)">
<path d="M34 15.3333H18C16.5272 15.3333 15.3333 16.5272 15.3333 18V20.6667C15.3333 22.1394 16.5272 23.3333 18 23.3333H34C35.4727 23.3333 36.6666 22.1394 36.6666 20.6667V18C36.6666 16.5272 35.4727 15.3333 34 15.3333Z" stroke="#7F88A9" stroke-width="2" stroke-linecap="round" stroke-linejoin="round"/>
<path d="M34 28.6667H18C16.5272 28.6667 15.3333 29.8606 15.3333 31.3333V34C15.3333 35.4728 16.5272 36.6667 18 36.6667H34C35.4727 36.6667 36.6666 35.4728 36.6666 34V31.3333C36.6666 29.8606 35.4727 28.6667 34 28.6667Z" stroke="#7F88A9" stroke-width="2" stroke-linecap="round" stroke-linejoin="round"/>
</g>
<defs>
<clipPath id="clip0_3_106">
<rect width="32" height="32" fill="white" transform="translate(10 10)"/>
</clipPath>
</defs>
</svg>
