<svg width="52" height="52" viewBox="0 0 52 52" fill="none" xmlns="http://www.w3.org/2000/svg">
<path d="M0 10C0 4.47715 4.47715 0 10 0H52V52H10C4.47715 52 0 47.5228 0 42V10Z" fill="#1A2036"/>
<g clip-path="url(#clip0_3_105)">
<path d="M22 15.3333H16.6666C15.9303 15.3333 15.3333 15.9303 15.3333 16.6667V22C15.3333 22.7364 15.9303 23.3333 16.6666 23.3333H22C22.7364 23.3333 23.3333 22.7364 23.3333 22V16.6667C23.3333 15.9303 22.7364 15.3333 22 15.3333Z" stroke="#7F89A9" stroke-width="2" stroke-linecap="round" stroke-linejoin="round"/>
<path d="M35.3334 15.3333H30C29.2636 15.3333 28.6667 15.9303 28.6667 16.6667V22C28.6667 22.7364 29.2636 23.3333 30 23.3333H35.3334C36.0697 23.3333 36.6667 22.7364 36.6667 22V16.6667C36.6667 15.9303 36.0697 15.3333 35.3334 15.3333Z" stroke="#7F89A9" stroke-width="2" stroke-linecap="round" stroke-linejoin="round"/>
<path d="M22 28.6667H16.6666C15.9303 28.6667 15.3333 29.2636 15.3333 30V35.3333C15.3333 36.0697 15.9303 36.6667 16.6666 36.6667H22C22.7364 36.6667 23.3333 36.0697 23.3333 35.3333V30C23.3333 29.2636 22.7364 28.6667 22 28.6667Z" stroke="#7F89A9" stroke-width="2" stroke-linecap="round" stroke-linejoin="round"/>
<path d="M35.3334 28.6667H30C29.2636 28.6667 28.6667 29.2636 28.6667 30V35.3333C28.6667 36.0697 29.2636 36.6667 30 36.6667H35.3334C36.0697 36.6667 36.6667 36.0697 36.6667 35.3333V30C36.6667 29.2636 36.0697 28.6667 35.3334 28.6667Z" stroke="#7F89A9" stroke-width="2" stroke-linecap="round" stroke-linejoin="round"/>
</g>
<defs>
<clipPath id="clip0_3_105">
<rect width="32" height="32" fill="white" transform="translate(10 10)"/>
</clipPath>
</defs>
</svg>
